<svg xmlns="http://www.w3.org/2000/svg" width="505.8" height="290.5" viewBox="0 0 505.8 290.5" style="&#10;    background: #000;&#10;">
  <title>GB_SVG</title>
  <g>
    <g>
      
      
    </g>
    <g>
      <path d="M373.3,179.5l13.3,5,18.8-1.7,3.4-5.5a1.1,1.1,0,0,1,1.9,0l2.2,3.7,14.7,9.5,3.2,7,12.5,6.1-4,7.6-15.9,6.3-18.6,4.1L379,248.1l-1,2.7c3.1,14.4,5.6,22.2,6.9,27.9l8.7,9.4c3.1,0,22.3-1.3,24.3-1.4l-30-22.5-3.7-13.1,21.3-22.6,3.3,19.7,21.8,32.7,11.6,6.8c1.3.3,42-.2,43.6-.2l-40-50s36.7-15.8,33.9-46.9c-1.6-18.7-21.4-37-40.3-37.2H356.9c.9,3.9,3.1,16.1,6,29.4Z" fill="#fff"/>
      <g>
        <path d="M360.1,272.8l-2.2-26.5a94.8,94.8,0,0,0-38.1,15.6c-16.1,11.5-34.2,21.6-35.6,22.6s2.7,2.5,6.8,5.1l33.2-.5L313.8,272l24.6-14.4,11.5-3.4L336,279.8l11.1,7.9c6.4-.1,18.7.8,23.6.7Z" fill="#fff"/>
        <path d="M279.8,223.8a83.7,83.7,0,0,1,6.5-17.5c5.2-9.8,11.5-16.9,17.6-18.7,7.7-2.3,23.6-3.9,46-1l9.6-2.8c-3.4-16.2-6.2-28.1-6.5-29.2-3.9.1-88.3.3-94.3.6,0,0-31.6,128.6-32.5,134.9.3,0,21.3.1,39.1-.1Z" fill="#fff"/>
      </g>
      <path d="M422.6,199.1c0,.7-1.1,1.4-2.1,1.4a1.4,1.4,0,0,1-1.5-1.4c0-.7.2-1.4,1.2-1.4S422.6,198.4,422.6,199.1Z" fill="#fff"/>
    </g>
  </g>
</svg>