<?xml version="1.0" encoding="utf-8"?>
<!-- Generator: Adobe Illustrator 24.0.0, SVG Export Plug-In . SVG Version: 6.00 Build 0)  -->
<svg version="1.1" id="Layer_1" xmlns="http://www.w3.org/2000/svg" xmlns:xlink="http://www.w3.org/1999/xlink" x="0px" y="0px"
	 viewBox="0 0 38 25" style="enable-background:new 0 0 38 25;" xml:space="preserve">
<g>
	<g>
		<path d="M0.71,23.97l2.82-1.6l4.5-6.75l0.68-4.07l4.4,4.67l-0.76,2.7L5.5,23.95L0.71,23.97z"/>
		<path d="M20.4,23.97l2.66-1.83l-2.87-5.29l2.37,0.7l5.08,2.97l-2.17,3.48L20.4,23.97z"/>
		<path d="M32.49,24.01c0.85-0.54,1.55-0.69,1.26-0.9c-0.29-0.21-4.03-2.29-7.35-4.67c-2.35-1.64-5.04-2.74-7.87-3.22l-0.45,5.47
			l-2.36,3.27h-4.74l1.98-2.05c0.27-1.18,0.79-2.79,1.42-5.76l-0.21-0.56l-5.33-5.47L5.02,9.28l-3.28-1.3L0.91,6.41l2.58-1.26
			L4.15,3.7l3.04-1.96l0.45-0.76C7.66,0.95,7.69,0.92,7.72,0.9c0.11-0.06,0.25-0.03,0.31,0.08l0.7,1.14l3.88,0.35l2.75-1.03
			l2.15,0.68l0.7,0.21l1.98,0.58c4.63-0.6,7.91-0.27,9.5,0.21c1.26,0.37,2.56,1.84,3.63,3.86c0.58,1.15,1.03,2.36,1.34,3.61
			l2.94,13.43H32.49z M5.18,5.48c0,0.14,0.23,0.29,0.43,0.29c0.16,0.01,0.3-0.11,0.31-0.27c0-0.01,0-0.01,0-0.02
			c0-0.15-0.04-0.29-0.25-0.29C5.47,5.19,5.18,5.34,5.18,5.48z"/>
	</g>
</g>
</svg>
