<?xml version="1.0" encoding="utf-8"?>
<!-- Generator: Adobe Illustrator 24.0.0, SVG Export Plug-In . SVG Version: 6.00 Build 0)  -->
<svg version="1.1" id="Layer_1" xmlns="http://www.w3.org/2000/svg" xmlns:xlink="http://www.w3.org/1999/xlink" x="0px" y="0px"
	 viewBox="0 0 52 35" style="enable-background:new 0 0 52 35;" xml:space="preserve">
<style type="text/css">
	.st0{fill:#DC3226;}
</style>
<g>
	<g>
		<path class="st0" d="M52.37,34.2l-3.86-2.19l-6.15-9.23l-0.93-5.56l-6.01,6.38l1.04,3.7l9.36,6.88L52.37,34.2z"/>
		<path class="st0" d="M25.45,34.2l-3.63-2.5l3.92-7.22l-3.24,0.96l-6.94,4.06l2.97,4.75L25.45,34.2z"/>
		<path class="st0" d="M1.94,34.26L5.96,15.9C6.39,14.19,7,12.54,7.8,10.97c1.47-2.77,3.25-4.77,4.97-5.28
			c2.17-0.65,6.66-1.1,12.98-0.28l2.71-0.79l0.96-0.28l2.93-0.93l3.75,1.41l5.31-0.48l0.96-1.55c0.09-0.15,0.28-0.2,0.42-0.11
			c0.05,0.03,0.08,0.07,0.11,0.11l0.62,1.04l4.15,2.68l0.9,1.98l3.53,1.72l-1.13,2.14l-4.49,1.78l-5.25,1.16l-7.28,7.48l-0.28,0.76
			c0.88,4.06,1.58,6.26,1.95,7.87l2.7,2.81h-6.48l-3.22-4.47L28,22.25c-3.86,0.66-7.53,2.16-10.75,4.4
			c-4.54,3.24-9.65,6.1-10.05,6.38c-0.39,0.28,0.57,0.49,1.73,1.23H1.94z M45.58,8.54c-0.28,0-0.34,0.2-0.34,0.4
			c0,0.01,0,0.02,0,0.03c0.02,0.22,0.2,0.38,0.42,0.37c0.28,0,0.59-0.2,0.59-0.39C46.26,8.74,45.86,8.54,45.58,8.54z"/>
	</g>
</g>
</svg>
