<svg version="1.1" width="505.8" height="290.5" viewBox="0 0 505.8 290.5" xmlns="http://www.w3.org/2000/svg" xmlns:xlink="http://www.w3.org/1999/xlink" overflow="hidden"><style>
.MsftOfcThm_Text1_Fill {
 fill:#c0c0c0; 
}
</style>
<g><g><g><path d=" M 99.6 53.2 L 53.4 62.4 L 52.5 85.1 L 52.5 86.3 L 53.6 86.3 C 55.5 86.3 66.3 87.2 67.7 87.5 C 68.1 89.3 67.9 103 67.4 107 L 63.3 107 C 61.0801 106.87 58.8736 106.569 56.7 106.1 C 54.3 105.6 51.8 104.9 49.4 104.2 C 47.5185 103.469 45.5781 102.901 43.6 102.5 C 42.8477 99.7892 42.3786 97.0076 42.2 94.2 C 41.9 91.6 41.8 88.8 41.7 85.9 L 41.7 83.2 C 41.7 79.3 41.9 75.2 42.3 71.1 C 42.7 67 43.2 63.1 43.8 59.4 C 44.3458 56.0526 45.1142 52.7452 46.1 49.5 C 47 46.7 93.3 39.3 93.3 39.3 L 88.3 0 L 74.9 1.6 C 68.6 2.2 62.3 3.1 55.8 4.2 C 49.3 5.3 43 6.8 36.9 8.5 C 31.3881 9.87696 26.0774 11.9609 21.1 14.7 C 17.4772 16.8292 14.5038 19.9063 12.5 23.6 C 9.97314 28.0103 7.99193 32.7114 6.6 37.6 C 4.90833 43.2713 3.6053 49.0514 2.7 54.9 C 1.8 61 1.1 67.3 0.6 73.3 C 0.1 79.3 0 85.4 0 91 L 0 93.3 C 0.1 98.1 0.3 102.4 0.5 106.2 C 0.7 110 1.2 114.5 1.6 117.8 C 1.89696 120.731 2.5346 123.617 3.5 126.4 C 4.5 128.8 8.6 147.2 20.6 148.6 C 25.5 149.1 103 147.6 103 147.6 Z" stroke="none" stroke-width="1" stroke-dasharray="" stroke-dashoffset="1" fill="#c0c0c0" fill-opacity="1"/><path d=" M 207.2 67.7 C 207.3 58.4 208 14.6 208 14.6 L 166.8 17.9 L 166.8 18.9 C 166.7 24.8 167 91.6 167 107.6 C 167.059 108.724 166.221 109.694 165.1 109.8 L 145.3 110.5 C 144.162 110.449 143.251 109.538 143.2 108.4 C 142.8 91.3 141.4 19.5 141.4 18.7 L 141.4 17.6 L 99.3 17.3 L 103.9 53.7 C 104.2 60.6 106.5 147.8 106.5 147.8 L 153.9 149.4 L 201.6 149.4 C 201.6 149.4 207.1 76.9 207.2 67.7 Z" stroke="none" stroke-width="1" stroke-dasharray="" stroke-dashoffset="1" fill="#c0c0c0" fill-opacity="1"/><path d=" M 406.9 15 L 364.7 8.5 L 364.5 9.5 C 362.8 17.5 356.3 61 351.8 60.9 C 347.3 60.8 335.9 8.4 335.9 8.4 L 286.2 8.6 C 286.2 8.6 272 60.1 268.7 60.3 C 265.4 60.5 257.5 8.9 257.5 8.9 L 211.6 14 L 211.2 69 L 205.7 149.4 L 234.6 149.7 C 236.1 136.6 239.5 94.7 240 94.7 L 240 94.7 C 240.7 95.1 250.8 135.6 254.7 151.1 L 270.3 151.1 C 275.3 136.4 289.1 98.2 289.5 97.2 C 289.9 96.2 291.6 136.9 292.3 151.6 L 325.6 151.3 C 326.4 134.1 328.5 94.3 328.6 94.3 L 328.6 94.3 C 329.2 94.5 343.3 134.9 347.7 149.2 L 365.4 148.8 C 369.1 135.9 379 95.7 380 95.2 C 381 94.7 383.1 126.4 384 149.7 L 411.9 150.3 L 417.2 100.2 Z" stroke="none" stroke-width="1" stroke-dasharray="" stroke-dashoffset="1" fill="#c0c0c0" fill-opacity="1"/><path d=" M 471.6 13.4 C 471.6 13.4 453.5 52.3 452 55 C 450.5 57.7 448.9 60.1 447.6 56.3 C 447.4 55.9 443.4 8.3 443.4 8.3 L 409.4 8.7 C 409.6 12.3 420.9 97.4 421.1 97.7 C 420.3 106.7 415.6 150.3 415.6 150.3 L 454.3 150.9 C 454.7 148.3 461.4 110.7 462.3 105.2 C 464 102.6 505.8 15.6 505.8 15.6 Z" stroke="none" stroke-width="1" stroke-dasharray="" stroke-dashoffset="1" fill="#c0c0c0" fill-opacity="1"/></g><g><path d=" M 109.2 216.9 C 111.866 215.691 114.44 214.288 116.9 212.7 C 119.6 210.9 128.9 203.7 130.7 201 C 133.6 196.6 133.6 157.9 132.4 156.5 C 114.4 147.2 39.5 154.3 15.3 155.1 L 11.9 289.4 C 36 290.5 128.9 291.2 129.9 289.3 C 135.6 278.3 132.9 231 132.5 228.4 C 131.2 218.5 116 218.9 109.2 216.9 Z M 52.9 203.4 C 52.9 201.7 53 199.9 53.2 197.9 C 53.4 195.9 53.5 193.9 53.7 191.8 C 53.9 189.7 54.1 187.8 54.3 186 C 58.4426 185.051 62.6572 184.449 66.9 184.2 C 68.7636 184.068 70.6329 184.034 72.5 184.1 C 74.7771 184.06 77.0532 184.227 79.3 184.6 C 81.2053 185.424 82.8855 186.693 84.2 188.3 C 85.4804 189.86 86.4328 191.663 87 193.6 C 87.5997 195.612 87.9029 197.701 87.9 199.8 L 87.9 200.5 C 87.8527 202.3 87.5497 204.085 87 205.8 C 85.9 206.3 54.2 207.7 53 207.5 C 52.86 206.138 52.8266 204.767 52.9 203.4 Z M 87.5 251.1 C 86.6797 254.943 84.6883 258.436 81.8 261.1 C 80 261.5 77.8 261.9 75.3 262.2 C 72.8 262.5 70.3 262.8 67.7 262.9 L 59.9 263.1 L 58.4 263.1 C 56.5271 263.077 54.6572 262.944 52.8 262.7 C 52.2461 258.824 51.9454 254.915 51.9 251 C 51.9 249.9 51.8 248.8 51.8 247.7 C 52.0171 243.613 52.451 239.541 53.1 235.5 C 55.5 234.9 87.3 236.9 88.6 237.6 C 89.9 238.3 88.7 239.9 88.6 240.9 C 88.5634 244.328 88.195 247.743 87.5 251.1 Z" stroke="none" stroke-width="1" stroke-dasharray="" stroke-dashoffset="1" fill="#c0c0c0" fill-opacity="1"/><path d=" M 136.3 153 C 137.1 156.6 139.2 279.3 135.9 289.3 C 145.5 289.5 201.7 289.9 221.9 289.6 L 229.7 259.5 C 217.7 259.8 185.4 261 183.3 260.5 C 183 259 182.6 238.9 183.3 237.5 C 187.3 236.9 227.4 235.8 227.7 235.8 L 231.2 208.1 C 229.7 207.8 186.4 207.6 186 207.5 C 185.6 207.4 185.4 189.3 185.6 188 C 197.1 188.9 234.8 189.5 246.3 189.9 L 255.2 155.2 Z" stroke="none" stroke-width="1" stroke-dasharray="" stroke-dashoffset="1" fill="#c0c0c0" fill-opacity="1"/></g></g><g><path d=" M 373.3 179.5 L 386.6 184.5 L 405.4 182.8 L 408.8 177.3 C 409.106 176.775 409.78 176.598 410.305 176.905 C 410.468 177 410.604 177.136 410.7 177.3 L 412.9 181 L 427.6 190.5 L 430.8 197.5 L 443.3 203.6 L 439.3 211.2 L 423.4 217.5 L 404.8 221.6 L 379 248.1 L 378 250.8 C 381.1 265.2 383.6 273 384.9 278.7 L 393.6 288.1 C 396.7 288.1 415.9 286.8 417.9 286.7 L 387.9 264.2 L 384.2 251.1 L 405.5 228.5 L 408.8 248.2 L 430.6 280.9 L 442.2 287.7 C 443.5 288 484.2 287.5 485.8 287.5 L 445.8 237.5 C 445.8 237.5 482.5 221.7 479.7 190.6 C 478.1 171.9 458.3 153.6 439.4 153.4 L 356.9 153.4 C 357.8 157.3 360 169.5 362.9 182.8 Z" stroke="none" stroke-width="1" stroke-dasharray="" stroke-dashoffset="1" fill="#c0c0c0" fill-opacity="1"/><g><path d=" M 360.1 272.8 L 357.9 246.3 C 344.211 248.646 331.204 253.972 319.8 261.9 C 303.7 273.4 285.6 283.5 284.2 284.5 C 282.8 285.5 286.9 287 291 289.6 L 324.2 289.1 L 313.8 272 L 338.4 257.6 L 349.9 254.2 L 336 279.8 L 347.1 287.7 C 353.5 287.6 365.8 288.5 370.7 288.4 Z" stroke="none" stroke-width="1" stroke-dasharray="" stroke-dashoffset="1" fill="#c0c0c0" fill-opacity="1"/><path d=" M 279.8 223.8 C 281.307 217.743 283.488 211.873 286.3 206.3 C 291.5 196.5 297.8 189.4 303.9 187.6 C 311.6 185.3 327.5 183.7 349.9 186.6 L 359.5 183.8 C 356.1 167.6 353.3 155.7 353 154.6 C 349.1 154.7 264.7 154.9 258.7 155.2 C 258.7 155.2 227.1 283.8 226.2 290.1 C 226.5 290.1 247.5 290.2 265.3 290 Z" stroke="none" stroke-width="1" stroke-dasharray="" stroke-dashoffset="1" fill="#c0c0c0" fill-opacity="1"/></g><path d=" M 422.6 199.1 C 422.6 199.8 421.5 200.5 420.5 200.5 C 419.729 200.555 419.059 199.975 419.004 199.204 C 419.001 199.169 419 199.135 419 199.1 C 419 198.4 419.2 197.7 420.2 197.7 C 421.2 197.7 422.6 198.4 422.6 199.1 Z" stroke="none" stroke-width="1" stroke-dasharray="" stroke-dashoffset="1" fill="#c0c0c0" fill-opacity="1"/></g></g></svg>