<svg xmlns="http://www.w3.org/2000/svg" width="505.8" height="290.5" viewBox="0 0 505.8 290.5">
  <title>GB_SVG</title>
  <g>
    <g>
      <g>
        <path d="M99.6,53.2,53.4,62.4l-.9,22.7v1.2h1.1c1.9,0,12.7.9,14.1,1.2.4,1.8.2,15.5-.3,19.5H63.3a43.2,43.2,0,0,1-6.6-.9c-2.4-.5-4.9-1.2-7.3-1.9a35.5,35.5,0,0,0-5.8-1.7,40.7,40.7,0,0,1-1.4-8.3c-.3-2.6-.4-5.4-.5-8.3V83.2c0-3.9.2-8,.6-12.1s.9-8,1.5-11.7a76.3,76.3,0,0,1,2.3-9.9c.9-2.8,47.2-10.2,47.2-10.2L88.3,0,74.9,1.6c-6.3.6-12.6,1.5-19.1,2.6S43,6.8,36.9,8.5a65.9,65.9,0,0,0-15.8,6.2,23.1,23.1,0,0,0-8.6,8.9,62.7,62.7,0,0,0-5.9,14A130.2,130.2,0,0,0,2.7,54.9C1.8,61,1.1,67.3.6,73.3S0,85.4,0,91v2.3c.1,4.8.3,9.1.5,12.9s.7,8.3,1.1,11.6a37.9,37.9,0,0,0,1.9,8.6c1,2.4,5.1,20.8,17.1,22.2,4.9.5,82.4-1,82.4-1Z" fill="#e00909"/>
        <path d="M207.2,67.7c.1-9.3.8-53.1.8-53.1l-41.2,3.3v1c-.1,5.9.2,72.7.2,88.7a2.1,2.1,0,0,1-1.9,2.2l-19.8.7a2.2,2.2,0,0,1-2.1-2.1c-.4-17.1-1.8-88.9-1.8-89.7V17.6l-42.1-.3,4.6,36.4c.3,6.9,2.6,94.1,2.6,94.1l47.4,1.6h47.7S207.1,76.9,207.2,67.7Z" fill="#e00909"/>
        <path d="M406.9,15,364.7,8.5l-.2,1c-1.7,8-8.2,51.5-12.7,51.4S335.9,8.4,335.9,8.4l-49.7.2S272,60.1,268.7,60.3,257.5,8.9,257.5,8.9L211.6,14l-.4,55-5.5,80.4,28.9.3c1.5-13.1,4.9-55,5.4-55h0c.7.4,10.8,40.9,14.7,56.4h15.6c5-14.7,18.8-52.9,19.2-53.9s2.1,39.7,2.8,54.4l33.3-.3c.8-17.2,2.9-57,3-57h0c.6.2,14.7,40.6,19.1,54.9l17.7-.4c3.7-12.9,13.6-53.1,14.6-53.6s3.1,31.2,4,54.5l27.9.6,5.3-50.1Z" fill="#e00909"/>
        <path d="M471.6,13.4S453.5,52.3,452,55s-3.1,5.1-4.4,1.3c-.2-.4-4.2-48-4.2-48l-34,.4c.2,3.6,11.5,88.7,11.7,89-.8,9-5.5,52.6-5.5,52.6l38.7.6c.4-2.6,7.1-40.2,8-45.7,1.7-2.6,43.5-89.6,43.5-89.6Z" fill="#e00909"/>
      </g>
      <g>
        <path d="M109.2,216.9a59.5,59.5,0,0,0,7.7-4.2c2.7-1.8,12-9,13.8-11.7,2.9-4.4,2.9-43.1,1.7-44.5-18-9.3-92.9-2.2-117.1-1.4L11.9,289.4c24.1,1.1,117,1.8,118-.1,5.7-11,3-58.3,2.6-60.9C131.2,218.5,116,218.9,109.2,216.9ZM52.9,203.4c0-1.7.1-3.5.3-5.5s.3-4,.5-6.1.4-4,.6-5.8a76.4,76.4,0,0,1,12.6-1.8,52.8,52.8,0,0,1,5.6-.1,37.5,37.5,0,0,1,6.8.5,13,13,0,0,1,4.9,3.7,15,15,0,0,1,2.8,5.3,21.6,21.6,0,0,1,.9,6.2v.7a19,19,0,0,1-.9,5.3c-1.1.5-32.8,1.9-34,1.7A26.3,26.3,0,0,1,52.9,203.4Zm34.6,47.7a19,19,0,0,1-5.7,10c-1.8.4-4,.8-6.5,1.1s-5,.6-7.6.7l-7.8.2H58.4a47.5,47.5,0,0,1-5.6-.4,90.1,90.1,0,0,1-.9-11.7c0-1.1-.1-2.2-.1-3.3a115.6,115.6,0,0,1,1.3-12.2c2.4-.6,34.2,1.4,35.5,2.1s.1,2.3,0,3.3A53.1,53.1,0,0,1,87.5,251.1Z" fill="#e00909"/>
        <path d="M136.3,153c.8,3.6,2.9,126.3-.4,136.3,9.6.2,65.8.6,86,.3l7.8-30.1c-12,.3-44.3,1.5-46.4,1-.3-1.5-.7-21.6,0-23,4-.6,44.1-1.7,44.4-1.7l3.5-27.7c-1.5-.3-44.8-.5-45.2-.6s-.6-18.2-.4-19.5c11.5.9,49.2,1.5,60.7,1.9l8.9-34.7Z" fill="#e00909"/>
      </g>
    </g>
    <g>
      <path d="M373.3,179.5l13.3,5,18.8-1.7,3.4-5.5a1.1,1.1,0,0,1,1.9,0l2.2,3.7,14.7,9.5,3.2,7,12.5,6.1-4,7.6-15.9,6.3-18.6,4.1L379,248.1l-1,2.7c3.1,14.4,5.6,22.2,6.9,27.9l8.7,9.4c3.1,0,22.3-1.3,24.3-1.4l-30-22.5-3.7-13.1,21.3-22.6,3.3,19.7,21.8,32.7,11.6,6.8c1.3.3,42-.2,43.6-.2l-40-50s36.7-15.8,33.9-46.9c-1.6-18.7-21.4-37-40.3-37.2H356.9c.9,3.9,3.1,16.1,6,29.4Z" fill="#e00909"/>
      <g>
        <path d="M360.1,272.8l-2.2-26.5a94.8,94.8,0,0,0-38.1,15.6c-16.1,11.5-34.2,21.6-35.6,22.6s2.7,2.5,6.8,5.1l33.2-.5L313.8,272l24.6-14.4,11.5-3.4L336,279.8l11.1,7.9c6.4-.1,18.7.8,23.6.7Z" fill="#e00909"/>
        <path d="M279.8,223.8a83.7,83.7,0,0,1,6.5-17.5c5.2-9.8,11.5-16.9,17.6-18.7,7.7-2.3,23.6-3.9,46-1l9.6-2.8c-3.4-16.2-6.2-28.1-6.5-29.2-3.9.1-88.3.3-94.3.6,0,0-31.6,128.6-32.5,134.9.3,0,21.3.1,39.1-.1Z" fill="#e00909"/>
      </g>
      <path d="M422.6,199.1c0,.7-1.1,1.4-2.1,1.4a1.4,1.4,0,0,1-1.5-1.4c0-.7.2-1.4,1.2-1.4S422.6,198.4,422.6,199.1Z" fill="#e00909"/>
    </g>
  </g>
</svg>
