<?xml version="1.0" encoding="utf-8"?>
<!-- Generator: Adobe Illustrator 24.0.0, SVG Export Plug-In . SVG Version: 6.00 Build 0)  -->
<svg version="1.1" id="Layer_1" xmlns="http://www.w3.org/2000/svg" xmlns:xlink="http://www.w3.org/1999/xlink" x="0px" y="0px"
	 viewBox="0 0 38 25" style="enable-background:new 0 0 38 25;" xml:space="preserve">
<g>
	<g>
		<path d="M37.22,23.74l-2.82-1.6l-4.5-6.75l-0.68-4.07l-4.4,4.67l0.76,2.7l6.85,5.03L37.22,23.74z"/>
		<path d="M17.52,23.74l-2.66-1.83l2.87-5.29l-2.37,0.7l-5.08,2.97l2.17,3.48L17.52,23.74z"/>
		<path d="M0.32,23.78l2.94-13.43C3.57,9.1,4.02,7.89,4.6,6.74c1.07-2.02,2.37-3.49,3.63-3.86c1.59-0.47,4.87-0.81,9.5-0.21
			l1.98-0.58l0.7-0.21l2.15-0.68l2.75,1.03l3.88-0.35l0.7-1.14c0.06-0.11,0.2-0.15,0.31-0.08c0.03,0.02,0.06,0.05,0.08,0.08
			l0.45,0.76l3.04,1.96l0.66,1.45l2.58,1.26l-0.83,1.57l-3.28,1.3L29.07,9.9l-5.33,5.47l-0.21,0.56c0.64,2.97,1.16,4.58,1.42,5.76
			l1.98,2.05H22.2l-2.36-3.27L19.38,15c-2.83,0.48-5.51,1.58-7.87,3.22c-3.32,2.37-7.06,4.46-7.35,4.67
			c-0.29,0.21,0.42,0.36,1.26,0.9H0.32z M32.24,4.97C32.04,4.97,32,5.11,32,5.26c0,0.01,0,0.01,0,0.02
			c0.01,0.16,0.15,0.28,0.31,0.27c0.21,0,0.43-0.14,0.43-0.29C32.74,5.11,32.45,4.97,32.24,4.97z"/>
	</g>
</g>
</svg>
