<svg xmlns="http://www.w3.org/2000/svg" viewBox="0 0 72.903 45.718">
    <defs>
        <style>
        .a {
            fill: #dc3226;
        }
        .a.active {
        	fill: #646464;
        }
        </style>
    </defs>
    <g transform="translate(36.452 22.859)">
        <g transform="translate(-36.452 -22.859)">
            <path class="a" fill="#646464" d="M59.923,41.767,54.343,38.6,45.453,25.258,44.108,17.22,35.42,26.443l1.5,5.349,13.531,9.946Z" transform="translate(12.98 3.864)" />
            <path class="a" d="M29.857,38.532,24.61,34.917,30.277,24.48l-4.684,1.388L15.56,31.737,19.854,38.6Z" transform="translate(4.13 7.1)" />
            <path class="a" d="M1.94,48.353,7.751,21.811a33.837,33.837,0,0,1,2.66-7.127c2.125-4,4.7-6.9,7.185-7.633,3.137-.94,9.628-1.59,18.764-.4L40.278,5.5l1.388-.4L45.9,3.755l5.421,2.038L59,5.1l1.388-2.241a.437.437,0,0,1,.607-.159.555.555,0,0,1,.159.159l.9,1.5,6,3.874,1.3,2.862,5.1,2.486-1.634,3.094-6.491,2.573-7.59,1.677L48.215,31.743l-.4,1.1c1.272,5.869,2.284,9.05,2.819,11.377l3.9,4.062H45.164L40.51,41.819l-.9-10.828a38.6,38.6,0,0,0-15.541,6.361c-6.563,4.684-13.95,8.818-14.529,9.223s.824.708,2.5,1.778ZM65.027,11.171c-.4,0-.492.289-.492.578v.043a.578.578,0,0,0,.607.535c.4,0,.853-.289.853-.564C66.01,11.461,65.432,11.171,65.027,11.171Z" transform="translate(-1.94 -2.635)" />
        </g>
    </g>
</svg>