<?xml version="1.0" encoding="utf-8"?>
<!-- Generator: Adobe Illustrator 24.0.0, SVG Export Plug-In . SVG Version: 6.00 Build 0)  -->
<svg version="1.1" id="Capa_1" xmlns="http://www.w3.org/2000/svg" xmlns:xlink="http://www.w3.org/1999/xlink" x="0px" y="0px"
	 viewBox="0 0 114.9 126" style="enable-background:new 0 0 114.9 126;" xml:space="preserve">
<g>
	<path d="M85.9,80.8c-2.8-1.8-4.5-5-4.3-8.4c0-0.7,0-1.4,0-2.1c-0.2-6.2-2.7-12-7.2-16.4c-4.4-4.4-10.3-6.9-16.4-7
		c-6.6-0.2-12.8,2.3-17.5,6.9c-4.7,4.6-7.3,10.7-7.3,17.3c0,0.4,0,0.9,0,1.3c0.2,3.4-1.5,6.6-4.3,8.4c-7.3,4.7-11.6,13-11.1,21.6
		c0.3,6,2.8,11.6,7.1,15.9c4.3,4.2,9.9,6.7,15.9,7c0.4,0,0.7,0,1.1,0c3.9,0,7.7-0.9,11.1-2.7c2.7-1.4,5.9-1.4,8.5,0
		c3.7,1.9,8,2.9,12.2,2.7c6-0.3,11.6-2.8,15.9-7c4.3-4.2,6.8-9.9,7.1-15.9C97.4,93.8,93.2,85.5,85.9,80.8z"/>
	<path d="M27.1,48c0-1.9-0.6-5.4-5.4-13.7c-2.5-4.3-5-7.9-5.1-8.1c-0.7-1-1.8-1.6-3-1.6s-2.3,0.6-3,1.6c-0.1,0.2-2.6,3.7-5.1,8.1
		C0.6,42.6,0,46.1,0,48c0,7.5,6.1,13.5,13.5,13.5S27.1,55.5,27.1,48z"/>
	<path d="M109.5,34.3c-2.5-4.3-5-7.9-5.1-8.1c-0.7-1-1.8-1.6-3-1.6c-1.2,0-2.3,0.6-3,1.6c-0.1,0.2-2.6,3.7-5.1,8.1
		c-4.9,8.4-5.4,11.9-5.4,13.7c0,7.5,6.1,13.5,13.5,13.5c7.5,0,13.5-6.1,13.5-13.5C114.9,46.1,114.4,42.6,109.5,34.3z"/>
	<path d="M40.4,36.9c7.5,0,13.5-6.1,13.5-13.5c0-1.9-0.6-5.4-5.4-13.7c-2.5-4.3-5-7.9-5.1-8.1c-0.7-1-1.8-1.6-3-1.6s-2.3,0.6-3,1.6
		c-0.1,0.2-2.6,3.7-5.1,8.1c-4.9,8.4-5.4,11.9-5.4,13.7C26.9,30.8,33,36.9,40.4,36.9L40.4,36.9z"/>
	<path d="M74.5,36.9C82,36.9,88,30.8,88,23.4c0-1.9-0.6-5.4-5.4-13.7c-2.5-4.3-5-7.9-5.1-8.1c-0.7-1-1.8-1.6-3-1.6s-2.3,0.6-3,1.6
		c-0.1,0.2-2.6,3.7-5.1,8.1C61.6,18,61,21.5,61,23.4C61,30.8,67.1,36.9,74.5,36.9z"/>
</g>
</svg>
