<svg preserveAspectRatio="xMidYMid meet" data-bbox="21.779 60 149.999 80.001" viewBox="21.779 60 149.999 80.001" height="200" width="200" xmlns="http://www.w3.org/2000/svg" data-type="tint" role="img">
    <g>
        <path d="M47.5 74.795c.769 0 1.635-.778 1.635-1.654 0-.778-.769-1.654-1.538-1.654s-1.538.681-1.538 1.654c-.098.876.576 1.557 1.441 1.654z" fill="#FF5208"></path>
        <path d="M58.749 77.91c.865 0 1.635-.778 1.538-1.654 0-.778-.769-1.654-1.635-1.654-.865 0-1.538.778-1.538 1.654.096 1.069.866 1.751 1.635 1.654z" fill="#FF5208"></path>
        <path d="M78.171 87.641c.769 0 1.635-.778 1.635-1.654 0-.778-.769-1.654-1.538-1.654-.77 0-1.635.778-1.538 1.654-.193.778.479 1.654 1.441 1.654z" fill="#FF5208"></path>
        <path d="M57.21 84.43c.865 0 1.538-.778 1.538-1.654 0-.778-.769-1.654-1.538-1.654s-1.538.778-1.538 1.654c-.095.875.577 1.654 1.538 1.654z" fill="#FF5208"></path>
        <path d="M66.826 77.91c.769 0 1.538-.778 1.538-1.654 0-.778-.769-1.654-1.538-1.654-.77 0-1.635.778-1.635 1.654 0 .973.769 1.751 1.635 1.654z" fill="#FF5208"></path>
        <path d="M60.287 71.584c.865 0 1.635-.778 1.635-1.654 0-.778-.769-1.654-1.538-1.654-.865 0-1.538.681-1.538 1.654-.001.875.673 1.654 1.441 1.654z" fill="#FF5208"></path>
        <path d="M66.826 71.584c.769 0 1.538-.778 1.538-1.654 0-.778-.769-1.654-1.538-1.654-.77 0-1.635.778-1.635 1.654 0 .875.769 1.654 1.635 1.654z" fill="#FF5208"></path>
        <path d="M70.094 84.43c.769 0 1.538-.778 1.538-1.654 0-.778-.769-1.654-1.538-1.654s-1.635.778-1.635 1.654c.002.875.867 1.654 1.635 1.654z" fill="#FF5208"></path>
        <path d="M39.327 85.987c.769 0 1.635-.778 1.635-1.654 0-.778-.769-1.654-1.538-1.654-.865 0-1.538.681-1.538 1.654s.672 1.654 1.441 1.654z" fill="#FF5208"></path>
        <path d="M47.5 79.564c-.769 0-1.538.681-1.538 1.654s.673 1.654 1.538 1.654c.769 0 1.635-.778 1.635-1.654a1.854 1.854 0 0 0-1.635-1.654z" fill="#FF5208"></path>
        <path d="M73.364 76.449c-.769 0-1.635.778-1.635 1.654 0 .778.769 1.654 1.635 1.654.769 0 1.538-.778 1.538-1.654 0-.972-.769-1.654-1.538-1.654z" fill="#FF5208"></path>
        <path d="M52.307 87.641c.865 0 1.635-.778 1.635-1.654 0-.778-.769-1.654-1.538-1.654s-1.538.778-1.538 1.654c-.193.876.576 1.654 1.441 1.654z" fill="#FF5208"></path>
        <path d="M63.557 84.43a1.63 1.63 0 0 0 1.635-1.654c0-.778-.769-1.654-1.538-1.654s-1.538.778-1.538 1.654c-.098.875.576 1.654 1.441 1.654z" fill="#FF5208"></path>
        <path d="M52.404 79.564c.769 0 1.538-.778 1.538-1.654 0-.778-.769-1.654-1.538-1.654-.865 0-1.538.681-1.538 1.654-.193.973.672 1.752 1.538 1.654z" fill="#FF5208"></path>
        <path d="M86.151 76.353c.769 0 1.538-.778 1.538-1.654 0-.778-.769-1.654-1.635-1.654-.769 0-1.538.778-1.538 1.654.097.875.866 1.75 1.635 1.654z" fill="#FF5208"></path>
        <path d="M73.267 73.238c.769 0 1.538-.778 1.538-1.654 0-.778-.769-1.654-1.538-1.654s-1.538.778-1.538 1.654c0 .876.673 1.654 1.538 1.654z" fill="#FF5208"></path>
        <path d="M53.942 73.238c.865 0 1.635-.778 1.538-1.654 0-.778-.769-1.654-1.635-1.654-.769 0-1.538.778-1.538 1.654.097.778.769 1.654 1.635 1.654z" fill="#FF5208"></path>
        <path d="M92.594 82.775c.769 0 1.538-.778 1.538-1.654 0-.778-.769-1.654-1.635-1.654-.769 0-1.538.778-1.538 1.654.096.876.865 1.654 1.635 1.654z" fill="#FF5208"></path>
        <path d="M41.058 79.564c.769 0 1.635-.778 1.635-1.654 0-.778-.769-1.654-1.538-1.654-.865 0-1.538.681-1.538 1.654-.193.973.479 1.654 1.441 1.654z" fill="#FF5208"></path>
        <path d="M79.71 74.795c.769 0 1.635-.778 1.538-1.654 0-.778-.769-1.654-1.538-1.654-.77 0-1.635.778-1.538 1.654-.001.876.768 1.654 1.538 1.654z" fill="#FF5208"></path>
        <path d="M86.151 84.43c.769 0 1.538-.778 1.538-1.654 0-.778-.769-1.654-1.635-1.654-.769 0-1.538.778-1.538 1.654.097.875.866 1.654 1.635 1.654z" fill="#FF5208"></path>
        <path d="M79.71 81.121c.769 0 1.538-.778 1.538-1.654 0-.778-.769-1.654-1.538-1.654-.77 0-1.538.778-1.538 1.654-.001.876.768 1.654 1.538 1.654z" fill="#FF5208"></path>
        <path d="M122.977 71.584c.577-.876 1.25-1.752 2.02-2.92-.865-.487-1.731-1.168-2.019-.974-.769.487-1.635 1.265-1.827 2.141-.002.391 1.152 1.169 1.826 1.753z" fill="#FF5208"></path>
        <path d="M96.728 86.863c-.096.389-.096.876-.192 1.654.481-.389.961-.584 1.057-.974.096-.292-.096-.681-.192-.974-.192.002-.577.1-.673.294z" fill="#FF5208"></path>
        <path d="M106.727 78.201c0-.778-.673-1.557-1.442-1.557h-.289c-.769 0-1.442.681-1.442 1.557 0 .876.673 1.557 1.442 1.557h.289c.769 0 1.538-.681 1.442-1.557z" fill="#FF5208"></path>
        <path d="M110.38 74.309h.289c.769 0 1.442-.681 1.442-1.557 0-.876-.673-1.557-1.442-1.557h-.289c-.769 0-1.442.681-1.442 1.557-.096.973.481 1.557 1.442 1.557z" fill="#FF5208"></path>
        <path d="M126.533 67.01h.289c.769 0 1.442-.681 1.442-1.557 0-.778-.673-1.557-1.442-1.557h-.289c-.769 0-1.442.681-1.442 1.557-.096.876.481 1.557 1.442 1.557z" fill="#FF5208"></path>
        <path d="M100.766 84.625c1.827 0 1.827-2.92 0-2.92-2.02 0-2.02 2.92 0 2.92z" fill="#FF5208"></path>
        <path d="M111.439 76.644c-1.154.584-.961 2.725.673 2.725h.096c.192.098.289.098.481.098-.481.778-.289 2.044.481 2.628a10.804 10.804 0 0 1 1.538-3.503h-.096c.577-1.07.096-2.92-1.635-2.92-.673-.098-1.251.388-1.538.972z" fill="#FF5208"></path>
        <path d="M118.361 76.06c2.5 0 2.5-3.893 0-3.893-2.499-.097-2.499 3.893 0 3.893z" fill="#FF5208"></path>
        <path d="M107.881 81.899c-2.5 0-2.5 3.893 0 3.893 2.596-.097 2.596-3.893 0-3.893z" fill="#FF5208"></path>
        <path d="M103.939 86.669c-2.5 0-2.5 3.893 0 3.893 2.596.096 2.596-3.893 0-3.893z" fill="#FF5208"></path>
        <path d="M100.093 91.242c-2.5 0-2.5 3.893 0 3.893s2.5-3.893 0-3.893z" fill="#FF5208"></path>
        <path d="M163.166 75.379c-6.538-8.466-16.057-13.819-26.729-15.084-10.673-1.265-21.152 1.557-29.613 8.175-3.462 2.725-6.346 5.839-8.846 9.342-.096-.098-.192-.292-.192-.389-4.423-6.909-10.577-11.678-18.172-14.501-4.038-1.557-8.269-2.335-12.499-2.433-.192 0-.385 0-.577-.098h-4.327c-.865.098-1.731.195-2.788.292-5.384.778-10.384 2.433-15 5.255-4.904 2.92-9.038 6.715-12.019 11.678-2.5 4.087-3.942 8.661-4.23 13.625 0 .584-.096 1.265-.096 1.946 0 .389-.096.681-.481.876a16.576 16.576 0 0 0-4.23 4.379c-.769 1.168-1.346 2.433-1.538 3.796-.289 2.433.673 3.99 2.981 4.866.385.098.769.292 1.154.389.481.098.769.389.865.876.192.681.385 1.363.673 2.141.481.876.961 1.752 1.538 2.628-.289.292-.577.681-.865.974-1.057 1.265-1.731 2.92-1.538 4.672.289 2.92 2.116 5.644 5.288 5.937.865.098 1.827 0 2.788 0 6.922 9.148 17.98 15.084 30.575 15.084s23.557-5.937 30.575-15.181h.769c.288 0 2.116-.195 2.211 0l.096.098h1.058c6.538 8.37 16.057 13.722 26.633 14.987 1.635.195 3.462.292 5.095.292 8.942 0 17.403-2.92 24.614-8.466 8.461-6.52 13.845-16.057 15.191-26.567 1.155-10.612-1.73-21.123-8.364-29.589zm-5.192 23.649c.673.876 1.538 1.654 1.442 2.044-.289.681-1.057 1.07-1.731 1.752-.481-.584-1.25-1.07-1.25-1.752.097-.585.866-1.169 1.539-2.044zm-1.442-7.786c-.192-.292.385-.974.961-1.946.865 1.07 1.538 1.752 1.923 2.53.096.098-.961 1.168-1.057 1.07-.769-.486-1.443-1.07-1.827-1.654zm1.249-7.299c-.096.098-1.346-1.07-1.25-1.363.289-.778 1.057-1.557 1.923-2.53.769.974 1.635 1.85 1.538 2.044a8.327 8.327 0 0 1-2.211 1.849zm-3.749-13.332s0-.097 0 0c-.481-.098-.865-.487-1.25-.876.481.098.865.487 1.25.876zm-1.538 6.909c.673-1.07 1.538-1.946 2.596-.487.769 1.07.961 2.141-.385 3.114 0-.876-.673-1.85-1.827-1.85a1.9 1.9 0 0 0-.865.195c.096-.291.288-.582.481-.972zm-3.366-5.45c1.923-.195 1.731 1.363 1.827 2.725.096.292.289.681.385.974-.385-.098-.673-.292-1.057-.389-1.25-.195-2.981.098-2.788-1.946.096-.39 1.057-1.364 1.633-1.364zm-2.019-5.741l.577.292c-.289.098-.481.195-.769.292.096-.195.192-.389.192-.584zM31.443 91.437c.192-4.476 1.442-8.661 3.846-12.457 2.403-3.99 5.769-7.299 9.711-9.731 4.134-2.628 8.653-4.185 13.269-5.061 4.904-.876 9.807-.778 14.615.098 5.095.974 9.807 2.822 14.037 5.742 4.134 2.92 7.307 6.423 9.518 10.9a38.57 38.57 0 0 0-4.423 13.138H31.347c0-.877 0-1.753.096-2.629zM97.4 114.695c-.192-.487-.385-.876-.577-1.363-.096-.389-.192-.876-.289-1.363h-.192a52.885 52.885 0 0 1-1.057-3.698c.192.098.385.098.577.195-.096-.389-.192-.876-.192-1.265.192.098.289.292.481.389.769.487 1.538 2.433 1.25 3.114-.769 1.364-.481 2.727-.001 3.991zm-1.537-12.749a1.61 1.61 0 0 0-.961-.292h-.385v-2.141c.192.098.481.195.769.195.865 0 1.442-.487 1.635-1.07.192 0 .289 0 .481.098a32.44 32.44 0 0 0-1.539 3.21zm-44.518 4.77c-.192-.098-.385-.292-.673-.487 1.057-.292 2.019-.584 2.981-.876.385-.098.673-.098.961.195 2.788 2.239 5.865 2.92 9.327 2.628a15.61 15.61 0 0 0 4.23-.876c1.346-.487 2.403-1.363 3.462-2.53.385-.487.769-.584 1.442-.389 1.25.292 2.403.584 3.846.876-1.057 1.654-2.116 3.114-3.269 4.672a183.59 183.59 0 0 1-5.095 6.909c-.577.778-.481.681-1.25.195a509.962 509.962 0 0 1-15.962-10.317zm2.885 5.935l-.096.195h-.769c-4.808-.195-9.711-.487-14.518-.681-1.731-.098-3.653-.292-5.384-.389-1.25-.098-2.019-.778-2.596-1.85-.385-.778-.673-1.654-.769-2.433a50.33 50.33 0 0 0 3.653-.974c.865-.292 1.731-.681 2.596-1.07.577-.292 1.057-.292 1.731-.098 1.346.389 2.788.778 4.134 1.07.865.195 1.827.292 2.884.389.192 0 .385.098.481.195 2.596 1.752 5.288 3.309 7.885 5.061.095.1.384.391.768.585zm21.346-.194c1.538-2.239 3.173-4.476 4.712-6.618.289-.389.673-.487 1.154-.584 1.635-.292 3.366-.584 5-.974.577-.098 1.057-.098 1.635.292 1.154.778 2.5 1.557 3.846 2.239.289 1.85.769 3.6 1.25 5.352-.481 0-.961.098-1.442.098-3.749.195-7.404.389-11.153.681-1.538.098-3.173.195-4.712.195-.483 0-.579-.096-.29-.681zm-48.844-7.98c-1.442-.292-2.019-1.168-1.635-2.628a7.416 7.416 0 0 1 .865-1.752c.769-.876 1.635-1.85 2.5-2.725.096-.098.385-.195.577-.195 6.442 0 48.171.195 62.497.195-.096 1.85-.096 3.6 0 5.45-.865-.487-1.635-1.07-2.5-1.85-.577-.487-1.154-.584-1.923-.389-1.25.389-2.5.876-3.942 1.07-3.269.487-6.346.389-9.518-.584-.577-.195-1.154-.487-1.731-.681-.961-.292-1.731-.098-2.116.876-.865 2.141-2.5 3.114-4.712 3.503-1.731.292-3.558.389-5.288 0-1.25-.292-2.403-.876-3.462-1.946-.289-.195-.481-.487-.769-.681-.577-.584-1.25-.681-2.02-.292l-1.442.584c-1.442.584-3.173.876-4.712.876-1.635 0-3.366 0-5-.098-1.346-.098-2.596-.584-3.846-1.168-.865-.487-1.635-.487-2.5-.098-1.635.778-3.366 1.557-5 2.141-1.438.489-2.881.685-4.323.392zm5.288 16.739c-.577 0-.865-.389-1.154-.681-1.057-.974-1.538-3.698 0-4.963.577-.487 1.25-.681 1.923-.681 3.653.195 7.115.389 10.769.584 2.981.195 5.961.292 8.942.487 2.5.098 5.192.292 7.692.389.096 0 .289.098.385.098 2.307 1.557 4.712 3.017 6.922 4.476l.192.195H42.788c-3.461.096-7.115.096-10.768.096zm33.171 15.182c-10.48 0-19.903-4.672-26.152-11.775h4.327c5.095 0 10.192 0 15.287-.098 10.192 0 20.384 0 30.575.098h2.211c-6.345 7.103-15.767 11.775-26.248 11.775zm26.922-15.085c-7.404 0-14.903-.098-22.306-.098h-.481c.385-.584.865-1.07 1.25-1.654.577-.778 1.154-1.654 1.731-2.433.385-.487.769-.681 1.346-.681 3.846-.195 7.5-.389 11.345-.584 3.173-.195 6.25-.389 9.422-.487.865 2.044 1.827 3.99 3.077 5.937-1.73-.097-3.654 0-5.384 0zm8.076-4.866c-.769-.487-1.154-1.557-1.731-2.335.865-.195 1.731-.778 2.5-.584.673.098 1.057 1.07 2.02 2.141-1.251.389-2.308.973-2.789.778zm-1.443-10.705c.289-.778.769-1.557 1.442-2.725.577.876 1.154 1.557 1.057 1.85-.289.681-.865 1.265-1.442 1.85.098-.099-1.152-.78-1.057-.975zm3.751 3.893c.865-.876 1.346-2.044 1.923-2.141.577-.098 1.827 1.07 1.731 1.557-.096.876-.961 1.654-1.538 2.433-.578-.389-1.155-.973-2.116-1.849zm2.98 16.739a39.784 39.784 0 0 0-.289-.292c.096.098.289.098.385.195-.096-.001-.096-.001-.096.097zm-.866-5.451c-1.346.584-1.731-.487-1.538-1.557.192-.876.769-1.654 1.154-2.53h1.154c.385.778.961 1.752.961 2.53 0 .682-.961 1.266-1.731 1.557zm-.191-18.197c-.673-.098-1.731-.876-1.635-1.265.096-.974.673-1.946 1.442-3.6 1.154 1.363 1.923 1.946 2.02 2.53.48 1.361-.001 2.627-1.827 2.335zm1.537-8.661c-2.788-.584-3.173 1.85-4.327 3.309.096.292.289.681.385.974-.385-.098-.673-.292-1.057-.389-1.154.195-2.307.389-3.558.584a7.18 7.18 0 0 1 .385-1.363c.577-1.557 0-2.628-1.442-3.017-.096 0-.289 0-.481.098v-.292h-.961c.577-3.309 1.538-6.52 2.981-9.44 0 .098 0 .098.096.195l2.116-3.211-.289-.584c3.558-5.839 8.653-10.51 14.615-13.722v.292c0 .778.673 1.557 1.442 1.557h.289c.769 0 1.442-.681 1.442-1.557 0-.584-.385-1.168-1.057-1.363a37.164 37.164 0 0 1 15.096-3.211c1.538 0 3.077.098 4.615.292 2.403.292 4.712.778 6.922 1.654-.289.195-.096 1.363-.096 2.141.577.292 1.154.584 1.635.876.769.584 1.442 1.265 2.116 1.946-.385.389-.865 1.07-1.154 1.07-.961-.195-2.116-.487-2.884-1.07-.481-.389-.289-1.557-.481-2.335-1.442-.098-3.077-.195-4.519-.292-.481-1.168-.961-2.335-1.538-3.503-.096.098-.192.195-.289.195a1.61 1.61 0 0 0-.961-.292c-1.442 0-2.02 1.265-1.827 2.433-.577.584-1.057 1.265-1.635 1.363-.385.098-.673.195-.961.389-1.442.195-1.923 1.752-1.442 2.822 0 .195-.096.292-.096.487-.385.098-.769.098-1.154.195-.289-.098-.577-.195-.865-.195-1.057 0-1.635.681-1.827 1.557-.192.389-.385.778-.289 1.363.096 2.53 2.884 1.363 4.327 2.141.289 4.087.289 4.087-3.942 3.893 0-3.309-2.307-3.698-4.904-3.893l-.096.098c.096 1.07.192 1.946.289 2.53-.192-.487-.577-.876-1.25-.876-.289 0-.481.098-.673.195.192.098.289.292.481.487l.096.098c.096.098.192.292.289.487 0 .098.096.098.096.195l.289.584c0 .098.096.098.096.195.289.584.481 1.168.673 1.946 0 .098 0 .195.096.195.096.292.192.584.192.876 0 .098 0 .195.096.292.096.292.096.584.192.876 0 .098 0 .195.096.292.096.389.096.778.192 1.265.192.098.289.195.481.195-.192.292-.385.584-.289.681 0 .098.096.195.096.292-.096 0-.096.098-.192.098.096.681.096 1.557.096 2.335v2.725c0 .195 0 .389-.096.584 0 .195 0 .389-.096.584 0 .195 0 .292-.096.487 0 .195-.096.389-.096.584 0 .098 0 .292-.096.389 0 .195-.096.389-.096.584 0 .098 0 .195-.096.292-.096.195-.096.389-.192.584 0 .098 0 .098-.096.195-.096.195-.096.487-.192.681l.289.292a4.325 4.325 0 0 1-.769 1.07c-.096.195-.096.292-.192.389 0 .098-.096.195-.096.195-.096.098-.096.195-.192.292-.096.098-.096.195-.192.195-.096.098-.096.195-.192.292-.096.098-.096.195-.192.195l-.192.195-.192.195-.192.195c-.096.097-.192.098-.192.195-.096 0-.096.098-.192.098s-.192.098-.289.098c-.096 0-.096 0-.192.098-.096 0-.289.098-.385.098-.192 0-.289 0-.481-.098-.096 0-.096 0-.192-.098-.096 0-.192-.098-.192-.098-.096 0-.192-.098-.289-.195-.096 0-.096-.098-.192-.098a39.784 39.784 0 0 0-.289-.292l-.096-.098c-.096-.098-.192-.195-.289-.389 0 0 0-.098-.096-.098-.096-.098-.192-.292-.289-.487l-.289-.584c-.096-.195-.192-.389-.289-.681h-.481c.096-.292.192-.487.192-.778a22.72 22.72 0 0 1-.769-3.017c-.289-.389-.577-.876-.961-1.265-.289-.389-.769-.778-.769-1.168a9.963 9.963 0 0 0-.289-1.168c.096.098.192.195.385.292.096.584.577 1.07 1.346 1.07h.096c0-.389-.096-.876-.096-1.265v-1.461c0-.584 0-1.168.096-1.752h-.481c.192-.292.289-.584.481-.974.096-1.363.289-2.628.577-3.796-.192-.098-.385-.098-.673-.098-2.211 0-2.403 3.211-.577 3.796-.096.195-.289.389-.289.584 0 .098 0 .292.096.487-1.25.292-1.635 1.752-1.154 2.725-.481-.584-1.154-.778-2.211-.584-2.116.389-1.442 2.141-1.538 3.503 1.25.389 2.596.487 3.653 1.168.673.487.865 1.85 1.057 2.822 0 .098-1.057.584-1.635.584-.865 0-2.211 1.168-2.5-.876-.965-.687-1.446-1.757-1.831-2.827zm39.133 12.553c-.577.098-1.25-.681-1.923-1.07.673-.681 1.346-1.557 2.116-2.044.289-.098 1.057.681 2.02 1.363-.963.875-1.54 1.654-2.213 1.751zm1.538 8.077c-.481.681-1.25 1.168-1.923 1.654-.096 0-.961-.876-.961-1.168.192-.681.769-1.265 1.442-2.433.674.975 1.539 1.753 1.442 1.947zm-3.173-34.644c-.385-.974-.577-2.044-.673-3.114 0-.195.673-.389 1.057-.681l1.154.292c-.769.778-.673 2.433.289 3.017h-.289c-.673 0-1.154.292-1.538.778.097-.098 0-.196 0-.292zm-3.653 31.92c-.385-.584-1.154-1.168-1.25-1.946-.192-1.168-.192-2.822 1.731-2.628.673.098 1.25.974 2.307 2.141-1.057 1.07-1.923 1.752-2.788 2.433zm1.058 5.741c-.192.195-.289.389-.385.584-.385 0-.673.195-.961.389-.192-.098-.289-.195-.481-.292.192-.389.481-.778.673-1.168.289.196.769.39 1.154.487zm-5-11.094c-.769-.292-1.442-1.07-2.116-1.752.769-.487 1.538-1.265 2.403-1.363.385-.098 1.057.778 2.211 1.85-1.152.682-2.018 1.46-2.498 1.265zm1.539 8.37c0 .584-.769 1.363-1.346 1.557-1.154.292-2.307 0-1.731-1.752.192-.681.673-1.168 1.635-2.92.768 1.752 1.442 2.433 1.442 3.115zm-4.423 4.865c-.289.195-.577.487-.673.778-.481.195-.865.389-1.25.487 0-.681-.385-1.363-1.057-1.752v-.292c.096-.584.961-1.363 1.635-1.752.192-.098.673.292 1.538 1.07-.289.488-.386.975-.193 1.461zm-3.654-37.272c0-.098 0-.098.096-.195.289-.584.673-1.557.961-1.557.865.098 1.827.389 2.403.876.289.292-.096 1.752-.481 2.044-.481.389-1.057.584-1.635.778.098-.682-.382-1.654-1.344-1.946zm2.212 17.128c.096 0 .865.974.769 1.07-.481.681-1.154 1.168-1.731 1.85-.385-.389-.673-.876-1.346-1.654.962-.585 1.634-1.072 2.308-1.266zm-.289 11.872c-.481-.778-1.346-1.654-1.442-2.53-.096-.389 1.25-1.557 1.827-1.363.673.098 1.057 1.168 1.923 2.239a26.3 26.3 0 0 1-2.308 1.654zm-.385-18.879c-.385-.098-.577-.876-.865-1.265.577-.195 1.154-.584 1.635-.584s.865.584 1.923 1.265c-1.347.389-2.116.778-2.693.584zm2.692-16.349c-1.442-.098-3.077-.195-4.519-.292.289-1.265.673-2.628.961-3.796 1.25-.292 2.5-.584 3.942-.974.096 1.557.192 3.017.385 4.574.577.292 1.154.876 1.635.778 1.154-.195 2.403-.389 2.02 1.265-.192.778-.961 2.044-1.635 2.239-.769.098-1.827-.681-2.403-1.363-.578-.583-.386-1.653-.386-2.431zm4.231-9.051c.289 4.087.289 4.087-3.942 3.796-1.058-3.602 2.116-3.017 3.942-3.796zm-3.654 17.906c.385.098.673.292 1.057.389.961.098 1.827.292 2.884.389-.192.876-.096 2.335-.577 2.53-.865.389-2.02.195-3.173.195.096-.778.192-1.752.289-2.53a4.666 4.666 0 0 1-.48-.973zm1.924 12.457c-.865-.292-1.442-1.265-2.116-2.044.577-.389 1.154-1.07 1.731-1.07.865.098 1.635.681 3.462 1.557-1.635.973-2.597 1.751-3.077 1.557zm6.056-23.453c-.865.487-1.635.974-2.5 1.557-.289-.584-1.057-1.363-.865-1.752.385-.778 1.154-1.557 1.923-1.85.577-.195 1.346.389 2.02.681-.097.488-.385.877-.578 1.364zm.385 8.077c-.865.778-1.346 1.654-1.827 1.654-.577 0-1.154-.681-1.731-1.07.481-.584.865-1.557 1.538-1.85.097-.194.963.682 2.02 1.266zm-2.115 7.98c.481 0 .961.584 1.538.974-.481.584-.865 1.265-1.731 2.53-.673-1.265-1.057-2.044-1.442-2.725.481-.292 1.058-.779 1.635-.779zm1.538 9.927c-.577.778-1.154 1.654-2.307 3.017-.577-1.265-1.057-2.044-.961-2.53.192-.681.769-1.654 1.346-1.752.576.097 1.249.875 1.922 1.265zm-14.902 6.228c-.577-.584-1.057-1.265-1.538-2.044 0-.098.865-.974 1.057-.876.673.292 1.154.876 2.116 1.752-.867.681-1.635 1.265-1.635 1.168zm1.153 8.174c-.481.292-1.057.681-1.154.681-.385-.292-.577-.778-.865-1.265.385-.195.769-.487 1.154-.487.193.098.48.585.865 1.071zm-6.826-2.822c-.385.098-.673.292-1.057.389.096-.292.289-.681.385-.974.961-1.07-1.923-3.309.961-3.698.769-.098 2.116.778 2.307 1.557.768 2.142-.674 2.823-2.596 2.726zm1.538 5.742a1.909 1.909 0 0 0-.865 1.265c0-.487-.289-.974-.769-1.168.192-.098.481-.195.769-.195.192-.195.577-.097.865.098zm-.673-14.89c-.577-.487-.769-1.363-1.154-2.239.673-.292 1.442-.778 2.02-.681.481.098.769 1.07 1.442 2.141-1.058.39-2.02.973-2.308.779zm.481-22.188c.577 0 1.25-.195 2.211-.292-.192 1.85-.289 2.822 0 3.503-.192-.098-.481-.098-.673-.098h-.192c-.192-.584-.673-1.168-1.442-1.265.288-.583.288-1.361.096-1.848zm1.057 11.775c-.192.195-.385.389-.481.681-.096-.487-.385-.876-.865-.974 0-.098.096-.098.096-.195.289.196.769.488 1.25.488zm.385-3.892c.192-.195.385-.389.289-.584 0-.195-.096-.292-.096-.487.481 0 .961-.292 1.154-.584.096.778.769 1.654 1.827 1.654.385 0 .769-.098.961-.292-.192.389-.385.681-.673.876a10.55 10.55 0 0 0-2.02 1.363c.193-.876-.385-1.752-1.442-1.946zm1.635-3.991c.289.098.673.098 1.057.195a2.087 2.087 0 0 0-.769.487c-.096-.195-.192-.487-.288-.682zm2.114 12.457c-.096.389-.865.584-1.346.876-.192-.584-.577-1.07-.577-1.752 0-.487.577-.876 1.346-1.946.385 1.459.674 2.238.577 2.822zm-7.499-17.517s0 .097 0 0c-.096-.098-.096-.195-.096-.292.096.195.096.292.096.292zm-4.327 25.498c.577-.389 1.154-1.07 1.731-1.07.577 0 1.057.778 1.827 1.654-.961.584-1.731 1.557-2.02 1.265-.576-.39-.961-1.266-1.538-1.849zm.192 4.573c-1.25 1.07-1.827 2.141-2.5 2.239-2.116.195-1.731-1.85-2.02-3.017-.096-.195 1.057-1.168 1.442-.974.868.195 1.636.877 3.078 1.752zm-7.498-2.822c-.192.098-1.538-.876-1.442-1.168.192-.778.769-1.654 1.442-2.725 1.057.876 1.538 1.265 2.019 1.752-.673.779-1.251 1.655-2.019 2.141zm2.018 7.98c-.577.778-1.154 1.557-2.403 3.114-.577-1.85-1.057-2.725-1.154-3.6 0-.292 1.057-1.168 1.346-.974.769.292 1.442.973 2.211 1.46zm-2.692 14.208c.096 0 .096 0 0 0 .192 0 .289.098.385.098 0 0 .096 0 .096.098v.195c-.192-.099-.288-.196-.481-.391zm1.058-3.309c-.769-.389-1.346-1.168-2.02-1.85.481-.487 1.154-1.363 1.538-1.265.865.292 1.538 1.07 3.173 2.239-1.442.487-2.307 1.071-2.691.876zm5.961 2.239c-.289.584-1.057.974-1.731 1.557-.096-.098-.096-.195-.192-.292-.289-.292-.577-.584-.865-.778-.096-.195-.192-.389-.192-.487 0-.487.865-.974 1.635-1.946.672.778 1.537 1.654 1.345 1.946zm4.038 5.157c0 .195-.096.292-.096.487-.577.195-1.057.584-1.25 1.07-.385-.195-.769-.292-1.154-.487.096-.681-.096-1.557-.577-1.946.096-.098.289-.292.385-.487.866-1.07 3.173-.777 2.692 1.363zm-1.442-7.493c-.192.098-1.154-.778-1.154-.778.385-.681.865-1.557 1.538-2.141.096-.098.865.487 1.731 1.07-.961.778-1.442 1.46-2.115 1.849zm4.134 10.413v-.098c.096.001.096.098 0 .098.096 0 0 0 0 0zm.481-5.936c-.577-.876-1.442-1.85-1.25-2.141.385-.681 1.154-1.07 1.827-1.654.385.584 1.057 1.168 1.057 1.85.001.68-.864 1.166-1.634 1.945zm3.366 6.812c.289 0 .673 0 .961-.098 0 .098.096.195.096.292-.289-.097-.673-.097-1.057-.194zm1.922-2.531c-.192.098-.385.292-.577.487-.289.195-.577.292-.865.487-.289-.778-.865-1.654-.769-2.335.096-.584.865-1.168 1.442-1.654.096-.098 1.154.584 1.154 1.07.096.68-.193 1.362-.385 1.945zm10.384-1.946c-.289.681-.769 1.265-1.25 2.044-.385.098-.769.195-.961.487-.769-.778-1.25-1.168-1.731-1.654.961-.778 2.019-1.752 3.077-2.53.193.681.961 1.362.865 1.653zm1.346-1.848c-.289-.778-.673-1.654-.577-1.85.481-.584 1.25-.974 1.923-1.265.192-.098.673.778.961 1.168a79.315 79.315 0 0 1-2.307 1.947zm6.058 4.087h-.961c-1.827 0-2.02-1.168-1.923-2.628.192-2.628 1.923-.487 2.884-.876.385-.098.673-.292 1.057-.389-.096.292-.289.681-.385.974.289.681.673 1.557.961 2.239-.576.291-1.056.485-1.633.68zm1.153-14.306c-.769.681-1.635 1.265-2.403 1.946 1.442.098 3.269.098 2.5 2.335-.192.584-1.731.778-2.788 1.07-.192-.876-.289-1.946-.481-2.822-.385.195-.769.292-1.057.487-3.269 1.85-6.538 2.725-9.999 2.725h-.673c.673.778 1.346 1.363 1.25 1.752-.289.681-1.057 1.07-1.731 1.752-.481-.584-1.25-1.07-1.25-1.752 0-.487.673-.974 1.25-1.85-1.057-.098-2.116-.195-3.173-.389-1.346-.195-2.788-.584-4.038-1.265-4.038-1.752-7.019-4.476-8.75-6.131-.096 1.654.289 3.6-1.827 3.114.096-.778-.385-1.654-1.346-1.654h-.289c0-1.752.961-2.433 2.884-2.433-.385-.389-.577-.681-.673-.778l1.635-1.265s0-.098.096-.098c.289-.389.769-.681 1.25-.876-.192.487-.096 1.07.289 1.557l.289.292c.096.098.192.098.289.195 0 .195 0 .389.096.584.289.292.577.584.961.876h.385c.096.098.192.195.385.292l-.192.195c.673.584 1.442 1.07 2.211 1.752.096-.098.096-.195.096-.389 0 .195 0 .292.096.487.673.487 1.538.876 2.307 1.265.481-.098.865-.487 1.057-.876.577.584 1.154 1.07 1.731 1.363.096.195.192.487.289.681.769.195 1.538.389 2.403.584.096-.098.192-.098.289-.195a7.643 7.643 0 0 0 2.116 0c.096.098.192.292.385.389.865 0 1.731-.098 2.596-.292 0-.098.096-.098.096-.195l.096.098c.673-.195 1.442-.389 2.116-.584 0-.098.096-.098.096-.195.096 0 .096.098.192.098.577-.195 1.057-.487 1.635-.681 2.981-1.363 5.769-3.6 8.557-6.715l2.02 1.946c-.192.195-.385.487-.673.681.289.974.673 2.141.865 3.114 0 .098-1.057.681-1.25.584-.388-.974-1.445-1.071-2.215-.779zm2.788 9.148c-.673-.292-1.154-1.07-1.635-1.752.577-.389 1.057-1.168 1.635-1.168s1.057.778 1.923 1.557c-.864.584-1.634 1.46-1.923 1.363zm.193-17.712c-.673-.681-1.635-1.265-1.827-2.044-.096-.487.769-1.752 1.442-1.946.481-.098 1.25.876 2.211 1.654-.769 1.071-1.345 1.752-1.826 2.336zm4.327 1.167c.673.778 1.346 1.363 1.25 1.654-.385.778-.961 1.363-1.442 2.141-.385-.389-1.154-.778-1.057-1.168.095-.777.672-1.458 1.249-2.627zm-1.25-7.785c.096-.389.673-.778 1.057-1.168.385.584.769 1.07 1.442 2.044-.865.389-1.635.876-1.827.681-.48-.292-.768-1.07-.672-1.557zm1.634 20.534c-.577-.389-1.538-.778-1.538-1.168 0-.681.577-1.363 1.154-2.725.769.974 1.442 1.654 1.442 2.044-.096.487-.769 1.168-1.058 1.849zm.481-36.981c-1.057.876-1.538 1.752-1.731 2.628h-.096c-.096 1.265-.192 2.628-.385 3.796.577 0 1.057-.292 1.346-.584.096.195.192.292.289.487.961 1.265 1.154 2.335-.481 3.309-.096-.098-.096-.195-.192-.292.385-.974.096-2.335-.961-2.725-.673 3.503-2.02 6.033-3.558 6.52.192.389.577.584 1.154.584.192 0 .385 0 .481-.098-.289.389-.673.584-1.346.195a6.43 6.43 0 0 1-1.057-.681c-1.25-.195-2.307-1.752-3.269-3.99-.385-.487-.769-.876-.961-1.363.192-.098.289-.292.385-.487-.385-1.85-.577-3.796-.577-6.131 0-2.141.192-4.087.577-5.937-.192 0-.385 0-.577.098.096-.195.192-.292.192-.487.096.098.289.098.385.195.769-3.503 2.116-5.839 3.846-5.937h.096c.385 0 .769.098 1.154.389.385.195.769.292 1.057.487.577.292.961.389 1.154.292-.385.292-.673.778-.673 1.265.481.974.865 2.335 1.154 3.698h.192c-.096 0-.096.098-.192.098.385 1.752.577 3.6.577 5.742.769-.389 1.057-1.265.961-2.141.961-.292 1.346-1.168 1.346-2.141 1.537.974.864 2.239-.29 3.211zm1.154-12.553c.096-.292.289-.681.385-.974.096-.778.289-1.654.192-2.335 1.154 1.07 2.307 2.335 3.462 3.503-.769-.487-1.827-.584-2.981-.584-.385.001-.769.292-1.058.39zm2.019 50.216zm1.538-5.353c-.096 0-.096 0-.192-.098-1.25-.195-2.981.098-2.788-1.946 0-.487.865-1.363 1.442-1.557 1.923-.195 1.731 1.363 1.827 2.725l-.289.876zm-.192-8.953c-.577-.778-1.538-1.363-1.731-2.335-.289-1.168.385-2.335 1.827-1.946.385.098.385 1.363.577 2.239.096.487 0 .974 0 1.363.096.292.289.681.385.974-.385-.003-.674-.198-1.058-.295zm6.731-21.702c.577 0 1.057-.098 1.346-.292.385 1.168.673 2.433.865 3.6-.289-.098-.577-.195-1.057-.195-.577-.098-1.635-.389-1.635-.584-.097-.875.192-2.529.481-2.529zm-.77-3.114c-.865.778-1.538 1.363-2.116 2.044-.577-.778-1.442-1.557-1.538-2.433-.096-.487 1.057-1.07 1.635-1.752.48.681 1.154 1.265 2.019 2.141zm-4.231-9.537c.673.876 1.346 1.85 1.923 2.822-.289-.098-.577-.195-.961-.195-.289 0-.577-.778-.577-1.168-.096-.681-.192-1.167-.385-1.459zm2.02 17.322c.289-.195 1.154.681 2.019 1.265-.865.778-1.346 1.654-1.827 1.654-.577 0-1.154-.681-1.731-1.07.482-.583.865-1.557 1.539-1.849zm2.115 10.997c-1.057.389-2.02.974-2.307.681-.577-.487-.769-1.363-1.154-2.239.673-.292 1.442-.778 2.02-.681.48.293.768 1.363 1.441 2.239zm.385 9.44c-1.442.487-2.116.876-2.884.778-.481-.098-1.25-.974-1.154-1.265.192-.584.961-1.363 1.346-1.265.673.098 1.25.681 2.596 1.752.096-.097.096-.097.096 0zm1.153-3.016c-.192-.292-.385-.584-.769-.876-1.154-.974-1.442-3.114.673-3.796.481-.195 1.057-.292 1.442-.487-.288 1.752-.769 3.504-1.346 5.159zm1.827-8.662c-.385-.389-1.057-.584-1.827-.778-.577-.098-1.057-1.265-1.25-2.141-.096-.292 1.25-1.168 1.731-1.07.769.292 1.25.292 1.538.195.001 1.264.001 2.529-.192 3.794z" fill="#FF5208"></path>
    </g>
</svg>